<?xml version="1.0" encoding="iso-8859-1"?>
<!-- Generator: Adobe Illustrator 19.0.0, SVG Export Plug-In . SVG Version: 6.00 Build 0)  -->
<svg version="1.1" id="Layer_1" xmlns="http://www.w3.org/2000/svg" xmlns:xlink="http://www.w3.org/1999/xlink" x="0px" y="0px"
	 viewBox="0 0 511.999 511.999" style="enable-background:new 0 0 511.999 511.999;" xml:space="preserve">
<path style="fill:#31C0D8;" d="M298.383,37.758c0,0,111.677,143.587,0,143.587S298.383,37.758,298.383,37.758z"/>
<path style="fill:#FFE1B2;" d="M450.834,272.332c53.175-47.859,53.175,0,53.175,0s-63.819,106.361-138.27,122.31
	c-74.441,15.96-249.937,21.276-249.937,21.276L57.31,473.824c0,0-10.644-21.266-47.869-106.361l79.768-84.488
	c0,0,10.644-10.644,26.593-10.644s207.395-31.899,207.395-31.899s31.909-5.327,31.909,15.949c0,21.266-37.226,31.909-37.226,31.909
	l-106.35,26.582c0,0-13.296,0-13.296,13.296s23.929,18.613,23.929,18.613h122.31C344.473,346.784,397.648,320.201,450.834,272.332z"
	/>
<path d="M497.294,244.92c-12.577-5.6-29.525,1.42-51.806,21.473c-46.568,41.914-93.695,67.543-102.957,72.401H223.1
	c-7.306-1.834-16.876-6.554-16.876-10.622c0-1.264,0-5.097,5.347-5.305l0.821,0.029l107.425-26.852l0.259-0.069
	c4.403-1.259,43.021-13.065,43.021-39.592c0-7.164-2.67-13.211-7.721-17.49c-11.442-9.689-31.273-6.712-33.493-6.341
	c-76.693,12.779-194.865,31.79-206.082,31.79c-19.04,0-31.713,12.454-32.243,12.984L0,365.822l2.119,4.843
	C39.004,454.98,49.725,476.524,50.163,477.4l4.934,9.857l64.095-63.453c24.727-0.815,178.527-6.407,248.22-21.35
	c76.959-16.487,140.77-121.548,143.448-126.013l1.139-1.898v-2.214C512,270.196,511.587,251.286,497.294,244.92z M364.063,386.829
	c-72.878,15.625-246.756,21.05-248.504,21.103l-3.144,0.095l-52.727,52.198c-6.014-12.877-18.39-39.95-40.808-91.121l76.023-80.521
	c0.689-0.649,9.066-8.26,20.897-8.26c16.144,0,189.046-28.731,208.694-32.005c4.739-0.769,16.002-1.101,20.564,2.781
	c0.958,0.815,2.057,2.152,2.057,5.284c0,12.313-23.069,21.787-31.318,24.194l-105.374,26.338c-8.504,0.467-20.18,6.299-20.18,21.256
	c0,19.154,27.097,25.727,30.187,26.414l0.856,0.191h125.074l1.687-0.844c2.211-1.105,54.757-27.619,108.134-75.66
	c18.695-16.826,30.129-20.727,34.593-18.76c3.186,1.4,4.67,7.016,5.104,10.771C486.627,284.949,428.745,372.973,364.063,386.829z"/>
<path d="M298.383,189.336c27.372,0,45.287-8.251,53.246-24.522c9.203-18.817,3.843-47.035-15.929-83.87
	c-14.088-26.242-30.324-47.212-31.008-48.092l-6.307-8.11l-6.307,8.11c-0.685,0.88-16.921,21.849-31.008,48.092
	c-19.773,36.834-25.132,65.052-15.929,83.87C253.096,181.085,271.01,189.336,298.383,189.336z M298.347,51.214
	c5.906,8.338,15.049,21.973,23.271,37.289c16.716,31.141,22.276,55.748,15.653,69.29c-5.05,10.326-18.135,15.562-38.889,15.562
	c-20.751,0-33.835-5.234-38.886-15.557C246.972,132.202,278.996,78.353,298.347,51.214z"/>
<path d="M295.164,124.515c-0.186,0.116-0.296,0.16-0.296,0.16l-7.142-14.297c-1.542,0.77-15.063,8.26-15.063,33.741h15.981
	C288.645,128.739,294.899,124.68,295.164,124.515z"/>
<g>
</g>
<g>
</g>
<g>
</g>
<g>
</g>
<g>
</g>
<g>
</g>
<g>
</g>
<g>
</g>
<g>
</g>
<g>
</g>
<g>
</g>
<g>
</g>
<g>
</g>
<g>
</g>
<g>
</g>
</svg>
